Coordinates
version=1
nRows=9
nColumns=42
inDegrees=yes

Units are S.I. units (second, meters, Newtons, ...)
If the header above contains a line with 'inDegrees', this indicates whether rotational values are in degrees (yes) or radians (no).

endheader
time	pelvis_tilt	pelvis_list	pelvis_rotation	pelvis_tx	pelvis_ty	pelvis_tz	hip_flexion_r	hip_adduction_r	hip_rotation_r	knee_angle_r	knee_adduction_r	knee_angle_r_beta	ankle_angle_r	subtalar_angle_r	mtp_angle_r	hip_flexion_l	hip_adduction_l	hip_rotation_l	knee_angle_l	knee_adduction_l	knee_angle_l_beta	ankle_angle_l	subtalar_angle_l	mtp_angle_l	lumbar_extension	lumbar_bending	lumbar_rotation	arm_flex_r	arm_add_r	arm_rot_r	elbow_flex_r	pro_sup_r	wrist_flex_r	wrist_dev_r	arm_flex_l	arm_add_l	arm_rot_l	elbow_flex_l	pro_sup_l	wrist_flex_l	wrist_dev_l
      0.72000000	      7.05632889	     -0.95864090	     -2.76239462	     -1.91334576	      0.88491020	      0.20024259	     -7.53193700	      7.64224140	    -21.02706385	     12.08314336	     -7.51783803	      0.21089064	     18.25727478	     26.47216621	     -7.59247385	     20.59967098	     -1.14453566	     -1.91879569	     54.96991397	      1.07224359	      0.95940599	      9.71159634	    -15.35168805	     -7.59247385	    -22.87633582	      0.67174238	      9.43938539	     15.93444276	    -24.50127586	     20.22875554	     48.29029667	     90.00000001	      0.00000000	      0.00000000	      1.40376837	    -16.84733607	     28.22121294	     32.50619463	     90.00000001	      0.00000000	      0.00000000
      0.73000000	      7.37046323	     -0.92404696	     -3.07365876	     -1.90118269	      0.88453725	      0.20158563	     -9.11953303	      7.50590784	    -21.13423689	     11.51191928	     -7.26562017	      0.20092089	     18.59084466	     27.33387105	     -7.58892109	     20.73881444	     -0.90645617	     -2.59696128	     51.36371680	      0.65971305	      0.89646597	      9.53243893	    -15.03508763	     -7.58892109	    -23.22453744	      0.54336798	      9.79710117	     16.70891936	    -24.87037198	     20.21825015	     49.18139456	     90.00000001	      0.00000000	      0.00000000	      0.30036107	    -16.69649692	     28.43128949	     32.44883552	     90.00000001	      0.00000000	      0.00000000
      0.74000000	      7.49912996	     -0.95865692	     -3.33182686	     -1.88923031	      0.88356402	      0.20287840	    -10.36727762	      7.52637964	    -21.13145572	     11.14607607	     -7.18128165	      0.19453573	     19.03321254	     27.86969104	     -7.58560893	     21.01778313	     -0.75754304	     -3.24922602	     47.61027147	      0.22926021	      0.83095599	      9.43850288	    -14.53110565	     -7.58560893	    -23.39281543	      0.50865898	     10.11222277	     17.48001366	    -25.19004158	     20.20644320	     50.00677529	     90.00000001	      0.00000000	      0.00000000	     -0.77274833	    -16.53066328	     28.55200841	     32.36620944	     90.00000001	      0.00000000	      0.00000000
      0.75000000	      7.60407970	     -1.02776440	     -3.53552032	     -1.87725989	      0.88232997	      0.20402017	    -11.52015425	      7.57404113	    -21.15660138	     10.91337186	     -7.11051826	      0.19047427	     19.45700681	     28.22273553	     -7.58224110	     21.19957809	     -0.60878855	     -3.99346751	     43.64911096	     -0.33006875	      0.76182070	      9.33244455	    -13.84697242	     -7.58224110	    -23.54673248	      0.52620994	     10.35497955	     18.26582781	    -25.46855277	     20.22176770	     50.76158033	     90.00000001	      0.00000000	      0.00000000	     -1.85723177	    -16.35664718	     28.59521437	     32.30915404	     90.00000001	      0.00000000	      0.00000000
      0.76000000	      7.63454989	     -1.15164580	     -3.70337248	     -1.86536576	      0.88078379	      0.20501379	    -12.49936708	      7.68770777	    -21.12089105	     10.85056705	     -7.08019787	      0.18937812	     19.94328527	     28.36570745	     -7.57942439	     21.34211915	     -0.50802803	     -4.63581175	     39.52481452	     -0.82298268	      0.68983815	      9.27234966	    -12.94034848	     -7.57942439	    -23.63242030	      0.62641926	     10.59780898	     19.04676137	    -25.74321703	     20.24203624	     51.41946222	     90.00000001	      0.00000000	      0.00000000	     -2.89154227	    -16.14331599	     28.57820002	     32.24387319	     90.00000001	      0.00000000	      0.00000000
      0.77000000	      7.70037679	     -1.26925171	     -3.75860438	     -1.85332756	      0.87908950	      0.20571285	    -13.48613787	      7.80332869	    -21.19765745	     10.86547378	     -7.09543694	      0.18963829	     20.35494998	     28.46240564	     -7.57616175	     21.33540606	     -0.31277449	     -5.41642113	     35.28685011	     -1.46738056	      0.61587172	      9.22196227	    -11.78649660	     -7.57616175	    -23.73985332	      0.76034985	     10.67061912	     19.83571569	    -25.95741627	     20.31135699	     52.01026281	     90.00000001	      0.00000000	      0.00000000	     -3.94954837	    -15.94885998	     28.48289558	     32.24107967	     90.00000001	      0.00000000	      0.00000000
      0.78000000	      7.69301687	     -1.43738608	     -3.80064581	     -1.84132369	      0.87713070	      0.20638301	    -14.31123581	      7.97308727	    -21.27404836	     11.03129482	     -7.13152015	      0.19253242	     20.79629758	     28.46132339	     -7.57281923	     21.31886500	     -0.17040320	     -5.99339576	     31.05230053	     -1.98506955	      0.54196488	      9.18776427	    -10.35934781	     -7.57281923	    -23.77457780	      0.95116084	     10.76139715	     20.60287912	    -26.13393065	     20.38529830	     52.49853194	     90.00000001	      0.00000000	      0.00000000	     -4.94663731	    -15.73768281	     28.34360770	     32.24039404	     90.00000001	      0.00000000	      0.00000000
      0.79000000	      7.62451079	     -1.64604960	     -3.78015784	     -1.82933742	      0.87495450	      0.20684393	    -14.99772513	      8.19947568	    -21.37951004	     11.32916975	     -7.22118400	      0.19773131	     21.23803918	     28.32815006	     -7.56990632	     21.30616873	     -0.05168782	     -6.37959907	     26.91593486	     -2.38795822	      0.46977168	      9.14944023	     -8.74256413	     -7.56990632	    -23.74523414	      1.21616105	     10.78052170	     21.35402749	    -26.26205396	     20.43253118	     52.89605769	     90.00000001	      0.00000000	      0.00000000	     -5.89923800	    -15.50714100	     28.21853325	     32.21641793	     90.00000001	      0.00000000	      0.00000000
      0.80000000	      7.50773075	     -1.88378072	     -3.71245795	     -1.81728138	      0.87261286	      0.20722511	    -15.58273690	      8.46739257	    -21.50171610	     11.73649571	     -7.34294859	      0.20484049	     21.63832920	     28.15324437	     -7.56731889	     21.31395239	      0.03967784	     -6.62141733	     23.02440358	     -2.71449974	      0.40185165	      9.04707565	     -6.97533077	     -7.56731889	    -23.65555863	      1.52406203	     10.75475554	     22.05394002	    -26.33584260	     20.46058162	     53.20667850	     90.00000001	      0.00000000	      0.00000000	     -6.80530173	    -15.29112809	     28.10786327	     32.19367629	     90.00000001	      0.00000000	      0.00000000
